<svg xmlns="http://www.w3.org/2000/svg" viewBox="0 0 293.4 67.2" id="BigLogo"><g id="h"><path d="M0 0v67.2h56v-67.2h-56zm52.5 52.2h-12.2v-19.3h-17.5v19.3h-12.2v-46.7h12.2v18h17.5v-18h12.2v46.7z"/></g><g id="s1"><path d="M89.7 16.1c-1.3-.9-2.6-1.7-4-2.4-1.2-.5-2.5-.7-3.8-.7-1.4-.1-2.7.3-3.9 1-1 .7-1.5 1.8-1.5 3 0 .7.3 1.5.8 2 .5.6 1.2 1.1 1.9 1.5.9.4 1.8.7 2.7.9l3 1c3.4.9 6.4 2.8 8.8 5.3 1.9 2.5 2.8 5.5 2.7 8.6 0 2.3-.4 4.5-1.2 6.6-.8 1.9-2 3.6-3.5 4.9-1.7 1.4-3.6 2.6-5.7 3.3-2.5.8-5.1 1.1-7.7 1.1-5.9 0-11.6-1.8-16.4-5.2l5.2-9.8c1.6 1.4 3.4 2.6 5.4 3.5 1.6.8 3.4 1.2 5.2 1.2 1.6.1 3.2-.3 4.5-1.3.9-.8 1.4-1.9 1.4-3.1 0-.6-.1-1.3-.3-1.9-.3-.6-.8-1-1.3-1.4-.7-.5-1.4-.9-2.2-1.2l-3.4-1.3c-1.6-.4-3.1-1-4.6-1.6-1.5-.6-2.8-1.4-4-2.4-1.3-1-2.2-2.2-2.9-3.7-.8-1.8-1.2-3.7-1.1-5.7 0-2.2.4-4.3 1.2-6.3.7-1.8 1.8-3.5 3.2-4.9 1.5-1.4 3.2-2.4 5.1-3.1 2.2-.7 4.4-1.1 6.7-1.1 2.4 0 4.9.3 7.2 1 2.5.6 5 1.6 7.3 2.8l-4.8 9.4z"/></g><g id="s2"><path d="M130.1 16.1c-1.3-.9-2.6-1.7-4-2.4-1.2-.5-2.5-.7-3.8-.7-1.4-.1-2.7.3-3.9 1-1 .7-1.5 1.8-1.5 3 0 .7.3 1.5.8 2 .5.6 1.2 1.1 1.9 1.5.9.4 1.8.7 2.8.9l3 1c3.3 1 6.3 2.8 8.7 5.3 1.9 2.5 2.8 5.5 2.7 8.6 0 2.3-.4 4.5-1.2 6.6-.8 1.9-2 3.6-3.5 4.9-1.7 1.4-3.6 2.6-5.7 3.3-2.5.8-5.1 1.1-7.7 1.1-5.9 0-11.6-1.8-16.4-5.2l5.2-9.8c1.6 1.4 3.4 2.6 5.4 3.5 1.7.8 3.5 1.2 5.3 1.2 1.6.1 3.1-.3 4.4-1.3.9-.8 1.5-1.9 1.5-3.1 0-.7-.1-1.3-.4-1.9-.3-.6-.8-1-1.3-1.4-.7-.5-1.4-.9-2.2-1.2l-3.4-1.3c-1.6-.4-3.1-1-4.6-1.6-1.5-.6-2.8-1.4-4-2.4-1.3-1-2.2-2.2-2.9-3.7-.8-1.8-1.2-3.7-1.1-5.7 0-2.2.4-4.3 1.2-6.3.7-1.8 1.8-3.5 3.2-4.9 1.5-1.4 3.2-2.4 5.1-3.1 2.2-.7 4.4-1.1 6.7-1.1 2.5 0 4.9.3 7.3 1 2.5.6 4.9 1.6 7.2 2.8l-4.8 9.4z"/></g><g id="earch"><path d="M268 0h6.8v24.1c2.1-2.1 5-3.3 8-3.3 3-.1 6 1.1 8 3.3 1.7 1.9 2.6 4.8 2.6 9v18.1h-6.8v-17.5c.1-1.8-.4-3.6-1.3-5.1-1-1.1-2.5-1.7-4-1.6-2.4 0-4.1.7-5.1 2.2s-1.4 4.1-1.4 7.7v14.3h-6.8v-51.2zM261.4 22.9v9.1c-1.1-1.6-2.6-2.9-4.2-3.9-1.3-.7-2.7-1.1-4.2-1.1-2.4-.1-4.8.9-6.4 2.7-1.7 1.8-2.6 4.2-2.6 6.7-.1 2.5.8 4.9 2.5 6.8 1.6 1.8 3.9 2.7 6.3 2.7 1.5 0 3-.3 4.4-1 1.6-1.1 3-2.4 4.2-4v9c-2.6 1.4-5.4 2.1-8.3 2.1-4.2.1-8.3-1.5-11.4-4.4-3-2.9-4.7-6.8-4.6-11-.1-4.2 1.6-8.3 4.6-11.2 3.1-3 7.2-4.6 11.5-4.6 2.9 0 5.7.8 8.2 2.1zM215.3 21.7h6.8v2.6c1-1.1 2.1-2 3.3-2.7 1.1-.5 2.3-.8 3.5-.8 2 .1 4 .7 5.7 1.8l-3.1 6.2c-1.1-.8-2.4-1.3-3.8-1.3-3.7 0-5.6 2.8-5.6 8.3v15.4h-6.8v-29.5zM199.9 21.7h6.8v29.5h-6.8v-3.1c-2.9 2.6-5.8 3.9-9.1 3.9-3.8.1-7.5-1.5-10.1-4.4-2.7-3.1-4.1-7.2-4-11.3-.1-4 1.3-8 4-11 2.5-2.9 6.1-4.6 9.9-4.5 3.5 0 6.5 1.5 9.3 4.3v-3.4zm-16.2 14.6c-.1 2.5.7 5 2.3 6.9 1.4 1.7 3.6 2.7 5.8 2.7 2.3.1 4.6-.9 6.2-2.6 1.6-1.9 2.4-4.4 2.3-6.9.1-2.4-.7-4.8-2.3-6.7-1.5-1.8-3.8-2.8-6.1-2.7-2.3-.1-4.5.9-5.9 2.7-1.5 1.9-2.4 4.2-2.3 6.6zM170.7 38h-21.1c0 2.2.8 4.2 2.3 5.8 1.4 1.4 3.4 2.2 5.4 2.1 1.5.1 3-.4 4.2-1.2 1.5-1.3 2.7-2.8 3.7-4.5l5.8 3.3c-.8 1.4-1.8 2.6-2.9 3.8-.9 1-2 1.9-3.1 2.7-1.1.7-2.4 1.2-3.7 1.5-1.4.3-2.9.5-4.3.5-4 .1-7.8-1.4-10.6-4.2-2.6-2.9-3.9-6.6-3.9-11.4-.2-4.1 1.2-8.1 3.8-11.3 5.7-5.7 14.9-5.8 20.7-.1 2.5 2.7 3.7 6.5 3.7 11.4v1.6zm-7-5.6c-.9-3.6-3.2-5.4-6.9-5.4-.8 0-1.6.1-2.3.4-.7.2-1.4.6-2 1.1-.6.4-1.1 1-1.5 1.6-.4.7-.8 1.5-1 2.3h13.7z"/></g></svg>