<svg viewBox="0 0 293.4 124.7" xmlns="http://www.w3.org/2000/svg"><path d="m3.3 16.4v67.2h56v-67.2zm52.5 52.2h-12.2v-19.3h-17.5v19.3h-12.2v-46.7h12.2v18h17.5v-18h12.2z" transform="translate(-3.3 -16.4)"/><path d="m93 32.5a24.9 24.9 0 0 0 -4-2.4 10.6 10.6 0 0 0 -3.8-.7 6.7 6.7 0 0 0 -3.9 1 3.7 3.7 0 0 0 -1.5 3 2.8 2.8 0 0 0 .8 2 6 6 0 0 0 1.9 1.5 17.1 17.1 0 0 0 2.7.9l3 1a19.1 19.1 0 0 1 8.8 5.3 13.2 13.2 0 0 1 2.7 8.6 17.6 17.6 0 0 1 -1.2 6.6 13.3 13.3 0 0 1 -3.5 4.9 17.8 17.8 0 0 1 -5.7 3.3 26 26 0 0 1 -7.7 1.1 28 28 0 0 1 -16.4-5.2l5.2-9.8a20.6 20.6 0 0 0 5.4 3.5 12.7 12.7 0 0 0 5.2 1.2 6.5 6.5 0 0 0 4.5-1.3 4.1 4.1 0 0 0 1.4-3.1 5 5 0 0 0 -.3-1.9 4.3 4.3 0 0 0 -1.3-1.4 10.8 10.8 0 0 0 -2.2-1.2l-3.4-1.3a35.7 35.7 0 0 1 -4.6-1.6 13.3 13.3 0 0 1 -4-2.4 9.8 9.8 0 0 1 -2.9-3.7 13.5 13.5 0 0 1 -1.1-5.7 15.4 15.4 0 0 1 1.2-6.3 13.4 13.4 0 0 1 3.2-4.9 14.5 14.5 0 0 1 5.1-3.1 20 20 0 0 1 6.7-1.1 26.6 26.6 0 0 1 7.2 1 30.6 30.6 0 0 1 7.3 2.8z" transform="translate(-3.3 -16.4)"/><path d="m133.4 32.5a24.9 24.9 0 0 0 -4-2.4 10.6 10.6 0 0 0 -3.8-.7 6.7 6.7 0 0 0 -3.9 1 3.7 3.7 0 0 0 -1.5 3 2.8 2.8 0 0 0 .8 2 7.4 7.4 0 0 0 1.9 1.5 15.4 15.4 0 0 0 2.8.9l3 1a19.3 19.3 0 0 1 8.7 5.3 13.2 13.2 0 0 1 2.7 8.6 17.6 17.6 0 0 1 -1.2 6.6 13.3 13.3 0 0 1 -3.5 4.9 17.8 17.8 0 0 1 -5.7 3.3 26 26 0 0 1 -7.7 1.1 28 28 0 0 1 -16.4-5.2l5.2-9.8a20.6 20.6 0 0 0 5.4 3.5 12.8 12.8 0 0 0 5.3 1.2 6.4 6.4 0 0 0 4.4-1.3 4.2 4.2 0 0 0 1.5-3.1 4.9 4.9 0 0 0 -.4-1.9 4.3 4.3 0 0 0 -1.3-1.4 10.8 10.8 0 0 0 -2.2-1.2l-3.4-1.3a35.7 35.7 0 0 1 -4.6-1.6 13.3 13.3 0 0 1 -4-2.4 9.8 9.8 0 0 1 -2.9-3.7 13.5 13.5 0 0 1 -1.1-5.7 15.4 15.4 0 0 1 1.2-6.3 13.4 13.4 0 0 1 3.2-4.9 14.5 14.5 0 0 1 5.1-3.1 20 20 0 0 1 6.7-1.1 27.8 27.8 0 0 1 7.3 1 31.6 31.6 0 0 1 7.2 2.8z" transform="translate(-3.3 -16.4)"/><path d="m174 54.4h-21.1a8.5 8.5 0 0 0 2.3 5.8 7.3 7.3 0 0 0 5.4 2.1 7 7 0 0 0 4.2-1.2 16.9 16.9 0 0 0 3.7-4.5l5.8 3.3a23.7 23.7 0 0 1 -2.9 3.8 15.4 15.4 0 0 1 -3.1 2.7 13.1 13.1 0 0 1 -3.7 1.5 18.8 18.8 0 0 1 -4.3.5 14.2 14.2 0 0 1 -10.6-4.2c-2.6-2.9-3.9-6.6-3.9-11.4a16.8 16.8 0 0 1 3.8-11.3 14.7 14.7 0 0 1 20.7-.1c2.5 2.7 3.7 6.5 3.7 11.4zm-7-5.6q-1.4-5.4-6.9-5.4a5.9 5.9 0 0 0 -2.3.4 5.6 5.6 0 0 0 -2 1.1 5.7 5.7 0 0 0 -1.5 1.6 11.5 11.5 0 0 0 -1 2.3z" transform="translate(-3.3 -16.4)"/><path d="m203.2 38.1h6.8v29.5h-6.8v-3.1c-2.9 2.6-5.8 3.9-9.1 3.9a13.2 13.2 0 0 1 -10.1-4.4 16.8 16.8 0 0 1 -4-11.3 16 16 0 0 1 4-11 12.7 12.7 0 0 1 9.9-4.5c3.5 0 6.5 1.5 9.3 4.3zm-16.2 14.6a10.4 10.4 0 0 0 2.3 6.9 7.3 7.3 0 0 0 5.8 2.7 8.1 8.1 0 0 0 6.2-2.6 10.4 10.4 0 0 0 2.3-6.9 9.9 9.9 0 0 0 -2.3-6.7 7.5 7.5 0 0 0 -6.1-2.7 7.3 7.3 0 0 0 -5.9 2.7 10 10 0 0 0 -2.3 6.6z" transform="translate(-3.3 -16.4)"/><path d="m218.6 38.1h6.8v2.6a14 14 0 0 1 3.3-2.7 7.8 7.8 0 0 1 3.5-.8 11.1 11.1 0 0 1 5.7 1.8l-3.1 6.2a6.7 6.7 0 0 0 -3.8-1.3c-3.7 0-5.6 2.8-5.6 8.3v15.4h-6.8z" transform="translate(-3.3 -16.4)"/><path d="m264.7 39.3v9.1a14.6 14.6 0 0 0 -4.2-3.9 8.2 8.2 0 0 0 -4.2-1.1 8.4 8.4 0 0 0 -6.4 2.7 9.5 9.5 0 0 0 -2.6 6.7 9.6 9.6 0 0 0 2.5 6.8 8.3 8.3 0 0 0 6.3 2.7 10.2 10.2 0 0 0 4.4-1 16.6 16.6 0 0 0 4.2-4v9a17.9 17.9 0 0 1 -8.3 2.1 15.9 15.9 0 0 1 -11.4-4.4 14.7 14.7 0 0 1 -4.6-11 15 15 0 0 1 4.6-11.2 16.3 16.3 0 0 1 11.5-4.6 18.2 18.2 0 0 1 8.2 2.1z" transform="translate(-3.3 -16.4)"/><path d="m271.3 16.4h6.8v24.1a11.6 11.6 0 0 1 8-3.3 10.2 10.2 0 0 1 8 3.3c1.7 1.9 2.6 4.8 2.6 9v18.1h-6.8v-17.5a8.7 8.7 0 0 0 -1.3-5.1 4.7 4.7 0 0 0 -4-1.6c-2.4 0-4.1.7-5.1 2.2s-1.4 4.1-1.4 7.7v14.3h-6.8z" transform="translate(-3.3 -16.4)"/><path d="m7.9 104.4v36.7h30.6v-36.7zm28.6 27.8h-6.6v-10.6h-9.6v10.6h-6.6v-25.5h6.6v9.8h9.6v-9.8h6.6z" transform="translate(-3.3 -16.4)"/><path d="m41 109.5a2.3 2.3 0 0 1 .7-1.7 2.8 2.8 0 0 1 1.7-.7 2.4 2.4 0 0 1 1.7.7 2.3 2.3 0 0 1 .7 1.7 2.4 2.4 0 0 1 -2.4 2.5 2.8 2.8 0 0 1 -1.7-.7 2.4 2.4 0 0 1 -.7-1.8z" transform="translate(-3.3 -16.4)"/><path d="m38.2 99.8h3.7v16.09h-3.7z"/><g transform="translate(-3.3 -16.4)"><path d="m65.5 131.9v2a10.4 10.4 0 0 0 -.2 1.5 6.9 6.9 0 0 1 -1.6 3.2 7.3 7.3 0 0 1 -6 2.5 7.9 7.9 0 0 1 -5.3-1.8 7.3 7.3 0 0 1 -2.5-4.9h3.8a3 3 0 0 0 .7 1.8 3.8 3.8 0 0 0 3.3 1.6c2.8 0 4.1-1.7 4.1-5.1v-2.2a6.8 6.8 0 0 1 -5.1 2.3 6.8 6.8 0 0 1 -5.4-2.4 8.9 8.9 0 0 1 -2.1-6.1 9.2 9.2 0 0 1 2-5.9 6.7 6.7 0 0 1 5.6-2.6 6.3 6.3 0 0 1 5 2.2v-1.8h3.7zm-3.5-7.6a5.3 5.3 0 0 0 -1.3-3.8 4.2 4.2 0 0 0 -3.2-1.4 4.3 4.3 0 0 0 -3.4 1.6 6.4 6.4 0 0 0 0 7.2 4.1 4.1 0 0 0 3.4 1.5 4 4 0 0 0 3.3-1.5 5.2 5.2 0 0 0 1.2-3.6z"/><path d="m70.2 104.4h3.8v13.1a6.5 6.5 0 0 1 4.3-1.7 6 6 0 0 1 4.4 1.7 7.5 7.5 0 0 1 1.4 4.9v9.9h-3.7v-9.5a5 5 0 0 0 -.7-2.8 2.7 2.7 0 0 0 -2.2-.9 3.2 3.2 0 0 0 -2.8 1.2 8.8 8.8 0 0 0 -.7 4.2v7.8h-3.8z"/><path d="m103.1 113.2a8 8 0 0 0 -2.1-1.3 5.9 5.9 0 0 0 -2.1-.4 3.3 3.3 0 0 0 -2.1.6 1.8 1.8 0 0 0 -.9 1.6 2.1 2.1 0 0 0 .4 1.1l1.1.8a6.6 6.6 0 0 0 1.5.5l1.6.5a10.1 10.1 0 0 1 4.8 2.9 7.2 7.2 0 0 1 1.5 4.7 8.6 8.6 0 0 1 -.7 3.6 6.4 6.4 0 0 1 -1.9 2.7 11.5 11.5 0 0 1 -3.1 1.8 13.3 13.3 0 0 1 -4.2.6 15.3 15.3 0 0 1 -8.9-2.9l2.8-5.3a14.3 14.3 0 0 0 2.9 1.9 6.5 6.5 0 0 0 2.9.7 3.3 3.3 0 0 0 2.4-.8 2 2 0 0 0 .8-1.7 1.6 1.6 0 0 0 -.2-1 1.9 1.9 0 0 0 -.6-.7l-1.3-.7-1.8-.7a18.4 18.4 0 0 1 -2.5-.9 5.4 5.4 0 0 1 -2.2-1.3 5.3 5.3 0 0 1 -1.6-2 7.5 7.5 0 0 1 -.6-3.1 9.5 9.5 0 0 1 .6-3.5 8.1 8.1 0 0 1 1.8-2.6 8.8 8.8 0 0 1 2.8-1.7 10.5 10.5 0 0 1 3.6-.6 14.1 14.1 0 0 1 4 .5 16.6 16.6 0 0 1 3.9 1.5z"/><path d="m114.3 141.1h-3.7v-24.9h3.7v1.8a7.1 7.1 0 0 1 10.5.2 8.8 8.8 0 0 1 2.2 6.1 8.5 8.5 0 0 1 -2.2 6.1 6.8 6.8 0 0 1 -5.4 2.4 7.1 7.1 0 0 1 -5.1-2.3zm8.9-16.8a5.2 5.2 0 0 0 -1.3-3.7 3.9 3.9 0 0 0 -3.2-1.5 4.4 4.4 0 0 0 -3.3 1.4 6 6 0 0 0 -1.3 3.8 5.5 5.5 0 0 0 1.3 3.7 3.9 3.9 0 0 0 3.3 1.4 3.9 3.9 0 0 0 3.2-1.4 5.2 5.2 0 0 0 1.3-3.7z"/><path d="m145.6 125.1h-11.6a5.2 5.2 0 0 0 1.3 3.2 4.5 4.5 0 0 0 5.2.5 11.7 11.7 0 0 0 2.1-2.5l3.1 1.8a19.1 19.1 0 0 1 -1.5 2.1 8.4 8.4 0 0 1 -1.8 1.5 9.3 9.3 0 0 1 -2 .8 8 8 0 0 1 -2.3.3 7.8 7.8 0 0 1 -5.8-2.3 10.2 10.2 0 0 1 0-12.4 8.1 8.1 0 0 1 11.2-.1 8.9 8.9 0 0 1 2.1 6.3zm-3.8-3a3.7 3.7 0 0 0 -3.8-3l-1.3.2-1.1.6-.8.9a5 5 0 0 0 -.5 1.3z"/><path d="m164.3 125.1h-11.6a5.2 5.2 0 0 0 1.3 3.2 4 4 0 0 0 3 1.1 4.4 4.4 0 0 0 2.3-.6 11.9 11.9 0 0 0 2-2.5l3.1 1.8a19.1 19.1 0 0 1 -1.5 2.1 11.4 11.4 0 0 1 -1.7 1.5l-2 .8a9.3 9.3 0 0 1 -2.4.3 7.8 7.8 0 0 1 -5.8-2.3 10.2 10.2 0 0 1 0-12.4 8.1 8.1 0 0 1 11.2-.1 8.9 8.9 0 0 1 2.1 6.3zm-3.8-3a3.6 3.6 0 0 0 -3.8-3l-1.3.2-1 .6a7.6 7.6 0 0 0 -.9.9 5 5 0 0 0 -.5 1.3z"/><path d="m180.2 104.4h3.7v27.9h-3.7v-1.7a6.8 6.8 0 0 1 -5 2.2 7.6 7.6 0 0 1 -5.5-2.4 9.3 9.3 0 0 1 -2.1-6.2 8.8 8.8 0 0 1 2.1-6 7.1 7.1 0 0 1 5.4-2.4 6.7 6.7 0 0 1 5.1 2.3zm-8.8 19.8a6 6 0 0 0 1.2 3.8 4 4 0 0 0 3.2 1.4 4.2 4.2 0 0 0 3.4-1.4 6.3 6.3 0 0 0 0-7.4 4.3 4.3 0 0 0 -3.3-1.5 3.9 3.9 0 0 0 -3.2 1.5 5.2 5.2 0 0 0 -1.3 3.6z"/><path d="m203 113.2a10.5 10.5 0 0 0 -2.2-1.3 5.2 5.2 0 0 0 -2.1-.4 3.3 3.3 0 0 0 -2.1.6 1.9 1.9 0 0 0 -.8 1.6 1.5 1.5 0 0 0 .4 1.1l1.1.8 1.4.5 1.7.5a10.2 10.2 0 0 1 4.7 2.9 7.2 7.2 0 0 1 1.5 4.7 10.5 10.5 0 0 1 -.6 3.6 7.6 7.6 0 0 1 -2 2.7 10.1 10.1 0 0 1 -3.1 1.8 13.1 13.1 0 0 1 -4.1.6 15.6 15.6 0 0 1 -9-2.9l2.8-5.3a12.5 12.5 0 0 0 3 1.9 6.2 6.2 0 0 0 2.9.7 3.5 3.5 0 0 0 2.4-.8 2.3 2.3 0 0 0 .8-1.7 3 3 0 0 0 -.2-1l-.7-.7a3.5 3.5 0 0 0 -1.2-.7l-1.9-.7a18.4 18.4 0 0 1 -2.5-.9 6.1 6.1 0 0 1 -2.2-1.3 6.4 6.4 0 0 1 -1.6-2 10.2 10.2 0 0 1 .1-6.6 7.8 7.8 0 0 1 1.7-2.6 8.8 8.8 0 0 1 2.8-1.7 10.6 10.6 0 0 1 3.7-.6 13.5 13.5 0 0 1 3.9.5 19.3 19.3 0 0 1 4 1.5z"/><path d="m225.1 125.1h-11.5a4.7 4.7 0 0 0 1.3 3.2 3.6 3.6 0 0 0 2.9 1.1 4.1 4.1 0 0 0 2.3-.6 9.4 9.4 0 0 0 2-2.5l3.2 1.8a11.6 11.6 0 0 1 -1.6 2.1 8 8 0 0 1 -1.7 1.5l-2 .8a8.5 8.5 0 0 1 -2.3.3 7.7 7.7 0 0 1 -5.8-2.3 8.6 8.6 0 0 1 -2.2-6.2 9 9 0 0 1 2.1-6.2 7.1 7.1 0 0 1 5.7-2.3 7.3 7.3 0 0 1 5.6 2.2c1.4 1.5 2 3.6 2 6.3zm-3.8-3a3.6 3.6 0 0 0 -3.7-3l-1.3.2-1.1.6-.8.9a5.2 5.2 0 0 0 -.6 1.3z"/><path d="m241 116.2h3.8v16.1h-3.8v-1.7a6.7 6.7 0 0 1 -4.9 2.2 7.4 7.4 0 0 1 -5.5-2.4 9.4 9.4 0 0 1 -2.2-6.2 8.9 8.9 0 0 1 2.2-6 6.8 6.8 0 0 1 5.4-2.4 6.4 6.4 0 0 1 5 2.3zm-8.8 8a5.5 5.5 0 0 0 1.3 3.8 3.9 3.9 0 0 0 3.2 1.4 4 4 0 0 0 3.3-1.4 5.9 5.9 0 0 0 0-7.4 4 4 0 0 0 -3.3-1.5 4.1 4.1 0 0 0 -3.2 1.5 5.7 5.7 0 0 0 -1.3 3.6z"/><path d="m249.5 116.2h3.7v1.5a7 7 0 0 1 1.8-1.5 3.8 3.8 0 0 1 1.9-.4 6.4 6.4 0 0 1 3.1.9l-1.7 3.4a3.5 3.5 0 0 0 -2.1-.7q-3 0-3 4.5v8.4h-3.7z"/><path d="m274.6 116.9v4.9a10.3 10.3 0 0 0 -2.2-2.1 4.8 4.8 0 0 0 -2.4-.6 4.7 4.7 0 0 0 -3.5 1.5 5.9 5.9 0 0 0 0 7.4 4.2 4.2 0 0 0 3.4 1.4 6 6 0 0 0 2.4-.5 9.1 9.1 0 0 0 2.3-2.2v4.9a9.5 9.5 0 0 1 -4.5 1.2 8.9 8.9 0 0 1 -6.2-2.4 8.2 8.2 0 0 1 -2.5-6.1 7.9 7.9 0 0 1 2.5-6 8.4 8.4 0 0 1 6.2-2.5 10 10 0 0 1 4.5 1.1z"/><path d="m278.2 104.4h3.8v13.1a6.5 6.5 0 0 1 4.3-1.7 6 6 0 0 1 4.4 1.7 7.5 7.5 0 0 1 1.4 4.9v9.9h-3.7v-9.5a5 5 0 0 0 -.7-2.8 2.7 2.7 0 0 0 -2.2-.9 3.2 3.2 0 0 0 -2.8 1.2 8.8 8.8 0 0 0 -.7 4.2v7.8h-3.8z"/></g></svg>